<svg width="25" height="25" viewBox="0 0 25 25" fill="none" xmlns="http://www.w3.org/2000/svg">
<g clip-path="url(#clip0_220_6910)">
<path d="M11.756 3.84607C12.0554 2.92481 13.3587 2.92481 13.6581 3.84607L15.1769 8.51998C15.3108 8.93197 15.6947 9.21091 16.1279 9.21093L21.0424 9.21111C22.0111 9.21115 22.4139 10.4507 21.6302 11.0201L17.6544 13.9089C17.3039 14.1636 17.1573 14.6149 17.2911 15.0269L18.8096 19.7009C19.1089 20.6222 18.0545 21.3883 17.2708 20.8189L13.2948 17.9304C12.9443 17.6758 12.4698 17.6758 12.1193 17.9304L8.14325 20.8189C7.35955 21.3883 6.30513 20.6222 6.60443 19.7009L8.12292 15.0269C8.25677 14.6149 8.11012 14.1636 7.75967 13.9089L3.78386 11.0201C3.0002 10.4507 3.40296 9.21115 4.37164 9.21111L9.28614 9.21093C9.71934 9.21091 10.1033 8.93197 10.2371 8.51998L11.756 3.84607Z" fill="#F59E0B"/>
</g>
<defs>
<clipPath id="clip0_220_6910">
<rect width="24" height="24" fill="white" transform="translate(0.707031 0.919434)"/>
</clipPath>
</defs>
</svg>
